<svg width="65" height="65" viewBox="0 0 65 65" fill="none" xmlns="http://www.w3.org/2000/svg">
<path d="M40.625 40.625H60.9375V44.6875H40.625V40.625ZM40.625 48.75H52.8125V52.8125H40.625V48.75Z" fill="black"/>
<path d="M60.9375 34.5312V32.5C60.932 26.6008 59.0904 20.8497 55.6682 16.0446C52.2461 11.2396 47.413 7.61892 41.8398 5.68512C36.2667 3.75133 30.2297 3.6003 24.5668 5.25299C18.9039 6.90567 13.8959 10.2801 10.2377 14.908C6.57954 19.536 4.45265 25.1878 4.1522 31.0793C3.85174 36.9708 5.39263 42.8097 8.56103 47.7858C11.7294 52.7618 16.3682 56.6282 21.8336 58.8484C27.299 61.0687 33.3199 61.5326 39.0609 60.1758L38.1266 56.2229C36.2828 56.6582 34.3945 56.877 32.5 56.875C32.1141 56.875 31.7383 56.8364 31.3564 56.8201C26.9484 50.2129 24.5425 42.4731 24.4278 34.5312H60.9375ZM56.7917 30.4687H44.6367C44.4096 22.9846 42.4827 15.6502 39.002 9.02075C43.8014 10.3541 48.0781 13.1234 51.2583 16.9572C54.4385 20.7909 56.368 25.5057 56.7917 30.4687ZM33.6436 8.17981C38.0516 14.7871 40.4575 22.5268 40.5722 30.4687H24.4278C24.5425 22.5268 26.9484 14.7871 31.3564 8.17981C31.7383 8.16559 32.1141 8.12497 32.5 8.12497C32.8859 8.12497 33.2617 8.16356 33.6436 8.17981ZM25.998 9.02075C22.5173 15.6502 20.5904 22.9846 20.3633 30.4687H8.21031C8.63371 25.5062 10.5647 20.7918 13.7441 16.9581C16.9235 13.1244 21.1994 10.3548 25.998 9.02075ZM25.998 55.9792C21.1994 54.6452 16.9235 51.8755 13.7441 48.0418C10.5647 44.2081 8.63371 39.4938 8.21031 34.5312H20.3633C20.5904 42.0154 22.5173 49.3498 25.998 55.9792Z" fill="black"/>
</svg>
