<svg width="65" height="65" viewBox="0 0 65 65" fill="none" xmlns="http://www.w3.org/2000/svg">
<path d="M32.5 4.0625C22.98 4.0625 15.2369 11.1972 15.2369 19.969C15.2369 28.7408 22.98 35.8755 32.5 35.8755C42.02 35.8755 49.7631 28.7408 49.7631 19.969C49.7631 11.1972 42.02 4.0625 32.5 4.0625ZM31.3938 7.87112L29.8303 12.1837L36.7548 11.5153L36.0662 9.3793L38.0081 9.87473V12.2444L41.0415 12.4267L40.4482 10.3002L42.0427 9.44929C45.3026 11.961 47.3728 15.7375 47.3728 19.969C47.3728 22.0084 46.8915 23.9421 46.0283 25.6797L42.5584 26.2207V30.0723C41.8966 30.632 41.181 31.1353 40.4206 31.5761L38.9312 29.4412L36.0294 30.1704L36.8447 33.0808C35.4361 33.4746 33.972 33.6741 32.5 33.673C28.3817 33.673 24.6603 32.1393 21.9699 29.6565L24.6204 29.3198L26.4012 26.0991L20.7293 23.4863L24.7523 20.3263L21.2572 17.6528L17.686 18.7494C18.0992 14.4121 20.6941 10.6612 24.4576 8.4325L25.214 14.0066L31.3938 7.87112ZM36.5568 15.7286L31.7537 18.5643L35.9508 22.0017L38.982 21.1853L38.7021 24.5368L44.2515 23.2478L42.1529 18.8652L38.7955 18.9081L41.78 16.5449L36.557 15.7286H36.5568ZM31.5674 20.6697L29.0025 21.7008L30.8211 22.9469L31.5674 20.6697ZM25.5436 21.0556L23.7631 22.9999L28.696 26.1944L25.5436 21.0556ZM33.4794 22.1306L31.6607 25.2674L36.0443 28.0173L34.5052 25.9977L36.4171 23.8923L33.4794 22.1306ZM6.49509 25.4825C5.32412 25.4658 4.12566 26.8399 4.11875 30.3624C4.10839 35.7649 3.5403 37.2898 6.25367 43.3997C8.24331 47.8802 9.13555 51.324 15.5025 54.1068C16.2567 56.5566 15.9557 57.1327 15.444 59.2262C14.9665 61.1807 19.8824 61.54 23.4825 59.8934C27.3456 57.9518 27.0215 52.6062 26.3314 48.9811C25.5288 44.7654 23.0036 43.8892 20.8147 42.0884C18.542 39.0937 18.013 33.6686 14.327 31.4801C13.5572 31.0231 9.63007 30.5592 15.0257 42.9747C7.91186 41.3512 9.20766 33.8256 8.69322 28.2538C8.53997 26.5945 7.52822 25.4971 6.49509 25.4824V25.4825ZM58.5049 25.4825C57.4718 25.4972 56.46 26.5945 56.3068 28.2539C55.7923 33.8256 57.0881 41.3512 49.9743 42.9747C55.3701 30.559 51.4428 31.0231 50.673 31.4801C46.9869 33.6686 46.4582 39.0937 44.1853 42.0885C41.9966 43.8892 39.4711 44.7654 38.6686 48.9811C37.9785 52.6062 37.6544 57.9518 41.5175 59.8934C45.1176 61.5399 50.0335 61.1807 49.5558 59.2262C49.0443 57.1327 48.7433 56.5566 49.4975 54.1068C55.8644 51.324 56.7567 47.8802 58.7463 43.3997C61.4597 37.2898 60.8916 35.7649 60.8812 30.3625C60.8743 26.8399 59.6759 25.4658 58.5049 25.4825Z" fill="#5268BF"/>
</svg>
