<svg width="65" height="65" viewBox="0 0 65 65" fill="none" xmlns="http://www.w3.org/2000/svg">
<path d="M5.41666 27.0834C7.52916 16.7484 15.3562 8.47716 25.4746 5.6605C26.325 5.42487 26.7475 5.30571 26.9777 5.55758C27.2079 5.81216 27.0373 6.22925 26.7014 7.06883L24.375 12.1876M37.9167 5.41675C48.2517 7.52925 56.5229 15.3563 59.3396 25.4747C59.5752 26.3251 59.6944 26.7476 59.4425 26.9778C59.1879 27.208 58.7708 27.0374 57.9312 26.7015L52.8125 24.3751M59.5833 37.9167C57.4708 48.2517 49.6437 56.523 39.5254 59.3397C38.675 59.5753 38.2525 59.6945 38.0223 59.4426C37.7921 59.188 37.9627 58.7709 38.2985 57.9313L40.625 52.8126M27.0833 59.5834C16.7483 57.4709 8.47707 49.6438 5.66041 39.5255C5.42478 38.6751 5.30561 38.2526 5.55749 38.0224C5.81207 37.7922 6.22916 37.9628 7.06874 38.2986L12.1875 40.6251" stroke="#4FD52A" stroke-width="1.5" stroke-linecap="round"/>
<path d="M32.5 30.06C28.9439 32.4975 24.6431 37.3183 23.0208 44.6877M25.3906 38.1985C19.7789 25.2148 31.0998 20.8354 39.715 20.3479C40.755 20.2883 41.275 20.2585 41.646 20.6377C42.0198 21.0169 41.9981 21.5585 41.9548 22.6364C41.6 31.6173 38.0196 43.9727 25.3906 38.1985Z" stroke="#1FAE28" stroke-width="1.5" stroke-linecap="round" stroke-linejoin="round"/>
</svg>
