<svg width="65" height="65" viewBox="0 0 65 65" fill="none" xmlns="http://www.w3.org/2000/svg">
<path d="M17.7071 6.28877C17.8021 6.03357 17.9729 5.81354 18.1966 5.65818C18.4202 5.50282 18.686 5.41956 18.9583 5.41956C19.2306 5.41956 19.4964 5.50282 19.7201 5.65818C19.9437 5.81354 20.1145 6.03357 20.2096 6.28877L22.1379 11.4942C22.4087 12.2254 22.9829 12.8023 23.7142 13.0731L28.9196 14.9961C29.1757 15.0906 29.3966 15.2613 29.5527 15.4853C29.7088 15.7093 29.7924 15.9757 29.7924 16.2487C29.7924 16.5216 29.7088 16.7881 29.5527 17.012C29.3966 17.236 29.1757 17.4067 28.9196 17.5013L23.7142 19.4296C23.3546 19.5654 23.0281 19.7763 22.7563 20.048C22.4846 20.3198 22.2737 20.6463 22.1379 21.0058L20.2096 26.2113C20.1145 26.4665 19.9437 26.6865 19.7201 26.8419C19.4964 26.9972 19.2306 27.0805 18.9583 27.0805C18.686 27.0805 18.4202 26.9972 18.1966 26.8419C17.9729 26.6865 17.8021 26.4665 17.7071 26.2113L15.7814 21.0058C15.6456 20.6455 15.4345 20.3183 15.1623 20.0461C14.89 19.7738 14.5628 19.5627 14.2025 19.4269L8.99707 17.504C8.74098 17.4094 8.52001 17.2387 8.36394 17.0147C8.20788 16.7908 8.12421 16.5244 8.12421 16.2514C8.12421 15.9784 8.20788 15.712 8.36394 15.488C8.52001 15.264 8.74098 15.0933 8.99707 14.9988L14.2025 13.0731C14.9337 12.8023 15.5106 12.2254 15.7814 11.4942L17.7071 6.28877Z" stroke="black" stroke-width="4"/>
<path d="M39.0108 26.1111L43.0273 30.1275M16.25 59.5833H20.3071C23.5896 59.5833 25.2308 59.5833 26.7069 58.9713C28.1829 58.3592 29.3448 57.2 31.6658 54.8763L53.7387 32.8061C55.1985 31.3463 55.9271 30.6177 56.3171 29.8269C56.6824 29.0879 56.8725 28.2747 56.8725 27.4503C56.8725 26.626 56.6824 25.8127 56.3171 25.0738C55.9271 24.2856 55.1985 23.5571 53.7387 22.0946C52.2762 20.6348 51.5477 19.9063 50.7596 19.5163C50.0203 19.1505 49.2065 18.9602 48.3817 18.9602C47.5568 18.9602 46.7431 19.1505 46.0038 19.5163C45.2183 19.9063 44.4871 20.6348 43.0246 22.0946L20.9544 44.1675C18.6333 46.4886 17.4742 47.6504 16.8621 49.1238C16.25 50.6052 16.25 52.2438 16.25 55.529V59.5833Z" stroke="black" stroke-width="4" stroke-linecap="round" stroke-linejoin="round"/>
</svg>
