<svg width="65" height="65" viewBox="0 0 65 65" fill="none" xmlns="http://www.w3.org/2000/svg">
<path d="M10.8333 10.8333C10.8333 9.3967 11.404 8.01895 12.4198 7.00313C13.4357 5.98731 14.8134 5.41663 16.25 5.41663H37.9167C38.6349 5.41678 39.3237 5.70222 39.8315 6.21017L53.3731 19.7518C53.8811 20.2596 54.1665 20.9484 54.1667 21.6666V54.1666C54.1667 55.6032 53.596 56.981 52.5802 57.9968C51.5644 59.0126 50.1866 59.5833 48.75 59.5833H16.25C14.8134 59.5833 13.4357 59.0126 12.4198 57.9968C11.404 56.981 10.8333 55.6032 10.8333 54.1666V10.8333ZM47.6288 21.6666L37.9167 11.9545V21.6666H47.6288ZM32.5 10.8333H16.25V54.1666H48.75V27.0833H35.2083C34.4901 27.0833 33.8012 26.798 33.2933 26.29C32.7854 25.7821 32.5 25.0933 32.5 24.375V10.8333ZM21.6667 35.2083C21.6667 34.49 21.952 33.8011 22.4599 33.2932C22.9678 32.7853 23.6567 32.5 24.375 32.5H40.625C41.3433 32.5 42.0322 32.7853 42.5401 33.2932C43.048 33.8011 43.3333 34.49 43.3333 35.2083C43.3333 35.9266 43.048 36.6155 42.5401 37.1234C42.0322 37.6313 41.3433 37.9166 40.625 37.9166H24.375C23.6567 37.9166 22.9678 37.6313 22.4599 37.1234C21.952 36.6155 21.6667 35.9266 21.6667 35.2083ZM21.6667 46.0416C21.6667 45.3233 21.952 44.6345 22.4599 44.1265C22.9678 43.6186 23.6567 43.3333 24.375 43.3333H40.625C41.3433 43.3333 42.0322 43.6186 42.5401 44.1265C43.048 44.6345 43.3333 45.3233 43.3333 46.0416C43.3333 46.7599 43.048 47.4488 42.5401 47.9567C42.0322 48.4646 41.3433 48.75 40.625 48.75H24.375C23.6567 48.75 22.9678 48.4646 22.4599 47.9567C21.952 47.4488 21.6667 46.7599 21.6667 46.0416Z" fill="black"/>
</svg>
