<svg width="58" height="58" viewBox="0 0 58 58" fill="none" xmlns="http://www.w3.org/2000/svg">
<path d="M22.9167 19.9167L28.9427 9.96362L24.9479 3.32821C24.4063 2.42543 23.6281 1.97404 22.6133 1.97404C21.5986 1.97404 20.8195 2.42543 20.2761 3.32821L13.6406 14.3647L22.9167 19.9167ZM49.1198 38.3334L43.0938 28.3126L52.5052 22.8959L56.8386 30.1407C57.3351 30.9081 57.6059 31.7657 57.651 32.7136C57.6962 33.6615 57.4931 34.5417 57.0417 35.3542C56.5903 36.257 55.9249 36.9792 55.0456 37.5209C54.1663 38.0626 53.2067 38.3334 52.1667 38.3334H49.1198ZM41.3333 57.2917L30.5 46.4584L41.3333 35.6251V41.0417H54.1979L50.2708 48.8959C49.7743 49.7987 49.0972 50.5209 48.2396 51.0626C47.382 51.6042 46.434 51.8751 45.3958 51.8751H41.3333V57.2917ZM15.1302 51.8751C14.2274 51.8751 13.4032 51.6386 12.6575 51.1655C11.9118 50.6924 11.3593 50.0713 11 49.3022C10.6389 48.5799 10.4701 47.8243 10.4936 47.0353C10.517 46.2463 10.731 45.5123 11.1354 44.8334L13.4375 41.0417H25.0833V51.8751H15.1302ZM8.42709 44.1563L4.02605 35.3542C3.6198 34.5417 3.42751 33.6733 3.44918 32.7488C3.47084 31.8244 3.73084 30.955 4.22918 30.1407L5.31251 28.3126L0.708344 25.5365L15.5365 21.8126L19.2604 36.7084L14.5886 33.8647L8.42709 44.1563ZM44.9896 21.0001L30.1615 17.2761L34.8333 14.5001L26.3698 0.416748H35.9167C36.8646 0.416748 37.7565 0.654179 38.5925 1.12904C39.4285 1.6039 40.0938 2.24668 40.5886 3.05737L44.1094 8.948L48.7136 6.10425L44.9896 21.0001Z" fill="#042F0B"/>
</svg>
