<svg width="65" height="57" viewBox="0 0 65 57" fill="none" xmlns="http://www.w3.org/2000/svg">
<path d="M13.5417 52.5208C11.0276 52.5208 8.61657 51.5221 6.83888 49.7444C5.06119 47.9668 4.0625 45.5557 4.0625 43.0417C4.0625 40.5276 5.06119 38.1166 6.83888 36.3389C8.61657 34.5612 11.0276 33.5625 13.5417 33.5625C16.0557 33.5625 18.4668 34.5612 20.2444 36.3389C22.0221 38.1166 23.0208 40.5276 23.0208 43.0417C23.0208 45.5557 22.0221 47.9668 20.2444 49.7444C18.4668 51.5221 16.0557 52.5208 13.5417 52.5208ZM13.5417 29.5C9.95019 29.5 6.50582 30.9267 3.96626 33.4663C1.42671 36.0058 0 39.4502 0 43.0417C0 46.6331 1.42671 50.0775 3.96626 52.6171C6.50582 55.1566 9.95019 56.5833 13.5417 56.5833C17.1331 56.5833 20.5775 55.1566 23.1171 52.6171C25.6566 50.0775 27.0833 46.6331 27.0833 43.0417C27.0833 39.4502 25.6566 36.0058 23.1171 33.4663C20.5775 30.9267 17.1331 29.5 13.5417 29.5ZM40.0833 24.0833H51.4583V19.2083H42.7917L37.5375 10.3521C36.7521 8.99792 35.2083 8.10417 33.5833 8.10417C32.3104 8.10417 31.1458 8.61875 30.3333 9.45833L20.3125 19.4521C19.4729 20.2917 18.9583 21.375 18.9583 22.7292C18.9583 24.4354 19.8521 25.8708 21.2604 26.7104L30.3333 32.2083V45.75H35.2083V28.1458L29.1146 23.6771L35.3979 17.3125M51.4583 52.5208C48.9443 52.5208 46.5332 51.5221 44.7555 49.7444C42.9779 47.9668 41.9792 45.5557 41.9792 43.0417C41.9792 40.5276 42.9779 38.1166 44.7555 36.3389C46.5332 34.5612 48.9443 33.5625 51.4583 33.5625C53.9724 33.5625 56.3834 34.5612 58.1611 36.3389C59.9388 38.1166 60.9375 40.5276 60.9375 43.0417C60.9375 45.5557 59.9388 47.9668 58.1611 49.7444C56.3834 51.5221 53.9724 52.5208 51.4583 52.5208ZM51.4583 29.5C47.8669 29.5 44.4225 30.9267 41.8829 33.4663C39.3434 36.0058 37.9167 39.4502 37.9167 43.0417C37.9167 46.6331 39.3434 50.0775 41.8829 52.6171C44.4225 55.1566 47.8669 56.5833 51.4583 56.5833C53.2366 56.5833 54.9976 56.2331 56.6405 55.5525C58.2835 54.872 59.7763 53.8745 61.0337 52.6171C62.2912 51.3596 63.2887 49.8668 63.9692 48.2238C64.6497 46.5809 65 44.82 65 43.0417C65 41.2633 64.6497 39.5024 63.9692 37.8595C63.2887 36.2165 62.2912 34.7237 61.0337 33.4663C59.7763 32.2088 58.2835 31.2113 56.6405 30.5308C54.9976 29.8503 53.2366 29.5 51.4583 29.5ZM43.3333 10C46.0417 10 48.2083 7.83333 48.2083 5.125C48.2083 2.41667 46.0417 0.25 43.3333 0.25C40.625 0.25 38.4583 2.41667 38.4583 5.125C38.4583 7.83333 40.625 10 43.3333 10Z" fill="black"/>
</svg>
