<svg width="58" height="55" viewBox="0 0 58 55" fill="none" xmlns="http://www.w3.org/2000/svg">
<path d="M57.2917 6.10413V1.22913L52.4167 0.687459C52.1458 0.687459 50.5208 0.416626 47.8125 0.416626C36.7083 0.416626 28.5833 3.66663 23.9792 9.35413C20.4583 7.18746 15.5833 5.83329 9.89584 5.83329C7.18751 5.83329 5.29168 6.10413 5.29168 6.10413L0.145844 6.91663L0.416677 11.5208C0.68751 19.6458 4.75001 35.0833 18.8333 35.0833H19.375V44.2916C9.08334 45.6458 0.416677 49.1666 0.416677 49.1666V54.5833H54.5833V49.1666C54.5833 49.1666 45.9167 45.6458 35.625 44.2916V35.625C52.6875 35.3541 57.2917 16.125 57.2917 6.10413ZM27.5 43.75H24.7917V28.5833C24.7917 28.5833 24.25 19.375 16.6667 19.375C16.6667 19.375 20.7292 21.5416 21.8125 29.3958C20.7292 29.6666 19.6458 29.6666 18.8333 29.6666C6.37501 29.6666 5.83334 11.5208 5.83334 11.5208C5.83334 11.5208 7.45834 11.25 9.89584 11.25C15.0417 11.25 23.4375 12.3333 25.875 19.6458C27.2292 7.45829 41.0417 5.83329 47.8125 5.83329C50.25 5.83329 51.875 6.10413 51.875 6.10413C51.875 6.10413 51.875 30.4791 34.8125 30.4791H32.9167C32.9167 25.0625 38.3333 16.9375 38.3333 16.9375C30.2083 19.6458 30.2083 30.2083 30.2083 30.2083V43.75H27.5Z" fill="#30210A"/>
</svg>
