<svg width="62" height="57" viewBox="0 0 62 57" fill="none" xmlns="http://www.w3.org/2000/svg">
<path d="M46.0417 7.97062C46.6104 8.66667 47.2496 9.49 47.886 10.4C49.8902 13.26 51.4583 16.3773 51.4583 18.7687C51.4583 20.2053 50.8876 21.5831 49.8718 22.5989C48.856 23.6147 47.4783 24.1854 46.0417 24.1854C44.6051 24.1854 43.2273 23.6147 42.2115 22.5989C41.1957 21.5831 40.625 20.2053 40.625 18.7687C40.625 16.3773 42.1931 13.26 44.1973 10.4C44.8337 9.49 45.4729 8.66667 46.0417 7.97062ZM46.0417 0L44.1079 1.97708H44.1025L44.0944 1.98792L44.0727 2.00958L43.9915 2.09354L43.7071 2.39688C42.2879 3.94072 40.9698 5.57453 39.761 7.28812C37.7027 10.2267 35.2083 14.5573 35.2083 18.7687C35.2083 21.6419 36.3497 24.3974 38.3813 26.4291C40.413 28.4607 43.1685 29.6021 46.0417 29.6021C48.9148 29.6021 51.6703 28.4607 53.702 26.4291C55.7336 24.3974 56.875 21.6419 56.875 18.7687C56.875 14.5573 54.3806 10.2267 52.3223 7.29083C51.0328 5.46528 49.6194 3.73056 48.0919 2.09896L48.0106 2.015L47.989 1.98792L47.9808 1.9825L47.9754 1.97708L46.0417 0ZM22.8448 34.3417C22.4001 34.3405 21.9595 34.427 21.5483 34.5961C21.137 34.7653 20.7631 35.0138 20.4479 35.3275L14.8958 40.8796V51.2687H30.1356L45.8548 47.339L55.4179 43.2575C55.6895 43.1087 55.9085 42.8797 56.045 42.6018C56.1815 42.3239 56.2288 42.0105 56.1805 41.7047C56.1322 41.3988 55.9906 41.1154 55.7751 40.893C55.5596 40.6707 55.2807 40.5203 54.9765 40.4625C54.7487 40.4227 54.5151 40.4319 54.2912 40.4896L54.2371 40.5031L36.8712 44.4979H27.0833V39.0812H35.5469C36.1754 39.0812 36.7781 38.8316 37.2226 38.3872C37.667 37.9427 37.9167 37.34 37.9167 36.7115C37.9167 36.083 37.667 35.4802 37.2226 35.0358C36.7781 34.5913 36.1754 34.3417 35.5469 34.3417H22.8448ZM43.2981 37.4617L52.9181 35.249C54.5743 34.8109 56.3342 35.0026 57.8573 35.7869C59.3804 36.5712 60.5585 37.8924 61.164 39.495C61.7694 41.0977 61.759 42.8679 61.1349 44.4633C60.5107 46.0588 59.3172 47.3661 57.785 48.1325L57.7119 48.1677L47.5827 52.4902L30.8019 56.6854H0V37.05H11.0662L16.6237 31.4925C17.4426 30.6764 18.4141 30.0297 19.4829 29.5891C20.5518 29.1486 21.6969 28.9229 22.8529 28.925H35.5469C36.6328 28.9249 37.7067 29.1518 38.6996 29.5914C39.6926 30.0309 40.5826 30.6733 41.3125 31.4772C42.0425 32.2811 42.5962 33.2288 42.9382 34.2594C43.2801 35.2901 43.4027 36.3808 43.2981 37.4617ZM9.47917 42.4667H5.41667V51.2687H9.47917V42.4667Z" fill="#2F4712"/>
</svg>
